<?xml version="1.0" encoding="utf-8"?>
<!-- Generator: Adobe Illustrator 20.1.0, SVG Export Plug-In . SVG Version: 6.00 Build 0)  -->
<svg version="1.1" id="Layer_1" xmlns="http://www.w3.org/2000/svg" xmlns:xlink="http://www.w3.org/1999/xlink" x="0px" y="0px"
	 viewBox="0 0 90 57.5" style="enable-background:new 0 0 90 57.5;" xml:space="preserve">
<g>
	<rect x="-5" y="-19.5" style="fill:none;" width="100" height="100"/>
	<g>
		<path style="fill:#DFE0E0;" d="M81,49.5v-46H9v46H0v4.6l6,3.4h78l6-3.4v-4.6H81z"/>
		<g>
			<rect x="13" y="7.5" style="fill:#A7D7EA;" width="64" height="40"/>
		</g>
		<polygon style="opacity:0.5;fill:#FFFFFF;" points="9,49.5 0,49.5 0,54.1 6,57.5 17,57.5 71,3.5 9,3.5 		"/>
		<path style="fill:#3F4042;" d="M77,47.5v-40H13v40H77z M15,9.5h60v36H15V9.5z M12,49.5v2h76v1.4l-4.5,2.6H6.5L2,52.9v-1.4h9v-46
			h68v43h2v-45H9v46H0v4.6l6,3.4h78l6-3.4v-4.6H12z M39,52.5v2h12v-2H39z M46,16.5h-2v11h2V16.5z M47,18.7v2.1c3.4,0.9,6,4,6,7.7
			c0,4.4-3.6,8-8,8s-8-3.6-8-8c0-3.7,2.6-6.8,6-7.7v-2.1c-4.6,0.9-8,5-8,9.8c0,5.5,4.5,10,10,10s10-4.5,10-10
			C55,23.7,51.6,19.7,47,18.7z"/>
	</g>
</g>
</svg>
